<svg id="Layer_1" data-name="Layer 1" xmlns="http://www.w3.org/2000/svg" viewBox="0 0 24.55 36"><defs><style>.cls-1{fill:none;isolation:isolate;}.cls-2{fill:#ef3218;}</style></defs><title>negative</title><path class="cls-1" d="M121.27,15"/><path class="cls-2" d="M12.27,33.63c-2.46-3.91-5-8.06-7-12-2.17-4.33-3.63-8.4-3.63-11.39,0-4.85,4.66-8.59,10.64-8.59s10.64,3.74,10.64,8.59c0,3-1.46,7.06-3.63,11.39-2,4-4.54,8.11-7,12Z"/><path d="M12.35,36a.82.82,0,0,0,.61-.37c2.68-4.22,5.55-8.86,7.77-13.28s3.81-8.62,3.81-12.12C24.55,4.33,18.95,0,12.27,0S0,4.33,0,10.23c0,3.5,1.59,7.7,3.81,12.12s5.1,9.06,7.77,13.28A.82.82,0,0,0,12.35,36Zm-.08-2.36c-2.46-3.91-5-8.06-7-12-2.17-4.33-3.63-8.4-3.63-11.39,0-4.85,4.66-8.59,10.64-8.59s10.64,3.74,10.64,8.59c0,3-1.46,7.06-3.63,11.39-2,4-4.54,8.11-7,12Zm0-13.58a8.19,8.19,0,1,0-8.19-8.19A8.22,8.22,0,0,0,12.27,20.06Zm0-1.66a6.53,6.53,0,1,1,6.53-6.53,6.51,6.51,0,0,1-6.53,6.53ZM12.36,16a.82.82,0,0,0,.73-.83V12.68h2.53A.82.82,0,1,0,15.55,11H13.09V8.59a.82.82,0,0,0-1.64,0s0,0,0,0V11H9a.82.82,0,1,0,0,1.64h2.48v2.45a.82.82,0,0,0,.8.84h.11Z"/><rect class="cls-2" x="10.22" y="7.65" width="4.5" height="3.41"/><rect class="cls-2" x="10.29" y="12.68" width="4.5" height="3.41"/></svg>