<?xml version="1.0" encoding="utf-8"?>
<!-- Generator: Adobe Illustrator 21.0.0, SVG Export Plug-In . SVG Version: 6.00 Build 0)  -->
<svg version="1.1" id="Layer_1" xmlns="http://www.w3.org/2000/svg" xmlns:xlink="http://www.w3.org/1999/xlink" x="0px" y="0px"
	 viewBox="0 0 24.5 36" style="enable-background:new 0 0 24.5 36;" xml:space="preserve">
<style type="text/css">
	.st0{fill:none;enable-background:new    ;}
	.st1{fill:#27C18E;}
</style>
<path class="st0" d="M121.3,15"/>
<g>
	<path class="st1" d="M12.3,33.6c-2.5-3.9-5-8.1-7-12c-2.2-4.3-3.6-8.4-3.6-11.4c0-4.8,4.7-8.6,10.6-8.6s10.6,3.7,10.6,8.6
		c0,3-1.5,7.1-3.6,11.4C17.3,25.6,14.7,29.7,12.3,33.6L12.3,33.6z"/>
	<g transform="translate(0,-952.36218)">
		<path d="M12.3,988.4c0.3,0,0.5-0.2,0.6-0.4c2.7-4.2,5.6-8.9,7.8-13.3s3.8-8.6,3.8-12.1c0-5.9-5.6-10.2-12.3-10.2S0,956.7,0,962.6
			c0,3.5,1.6,7.7,3.8,12.1s5.1,9.1,7.8,13.3C11.7,988.2,12,988.4,12.3,988.4z M12.3,986c-2.5-3.9-5-8.1-7-12
			c-2.2-4.3-3.6-8.4-3.6-11.4c0-4.8,4.7-8.6,10.6-8.6s10.6,3.7,10.6,8.6c0,3-1.5,7.1-3.6,11.4C17.3,977.9,14.7,982.1,12.3,986
			L12.3,986z M12.3,972.4c4.5,0,8.2-3.7,8.2-8.2c0-4.5-3.7-8.2-8.2-8.2s-8.2,3.7-8.2,8.2C4.1,968.7,7.8,972.4,12.3,972.4z
			 M12.3,970.8c-3.6,0-6.5-2.9-6.5-6.5c0-3.6,2.9-6.5,6.5-6.5s6.5,2.9,6.5,6.5C18.8,967.8,15.9,970.8,12.3,970.8L12.3,970.8z
			 M12.4,968.3c0.4,0,0.7-0.4,0.7-0.8V965h2.5c0,0,0.1,0,0.1,0c0.5,0,0.8-0.4,0.8-0.9c0-0.5-0.4-0.8-0.9-0.8h-2.5V961
			c0-0.5-0.4-0.8-0.8-0.8c-0.5,0-0.8,0.4-0.8,0.8c0,0,0,0,0,0v2.5H9c-0.5,0-0.8,0.4-0.8,0.8c0,0.5,0.4,0.8,0.8,0.8c0,0,0,0,0,0h2.5
			v2.5c0,0.5,0.3,0.8,0.8,0.8C12.3,968.3,12.3,968.3,12.4,968.3L12.4,968.3z"/>
	</g>
</g>
</svg>
